# xmcd
#
# Track frame offsets:
#	150
#	14406
#	27618
#	41868
#	53099
#	64093
#	78618
#	92891
#	106159
#	120342
#	130763
#	149746
#	165153
#	180672
#	194316
#	207924
#	221572
#	236866
#	250238
#	261174
#
# Disc length: 3744 seconds
#
# Revision: 0
# Processed by: cddbd v1.5.2PL0 Copyright (c) Steve Scherf et al.
# Submitted via: EasyCDDAExtractor 16.0.6.1
#
DISCID=250e9e14
DTITLE=Συλλογικός δίσκος - Τα τραγούδια του τζούκ μποξ 8
DYEAR=2010
DGENRE=Ποικίλη
TTITLE0=Καζαντζίδης Στέλιος - Το τελευταίο βράδυ μου [Σ. Καζαντζίδης]
TTITLE1=Γλυκερία - Πήγα σε μάγισσες [Χ. Νικολόπουλος-Λ. Χαψιάδης]
TTITLE2=Πουλόπουλος Γιάννης - Φραγκοσυριανή [Μ. Βαμβακάρης]
TTITLE3=Χρονοπούλου Μαίρη - Καμαρούλα μιά σταλιά [Μ. Πλέσσας-Λ. Παπαδόπουλος]
TTITLE4=Μπέλλου Σωτηρία - Γιά κοίτα κόσμε [Β. Τσιτσάνης]
TTITLE5=Γαβαλάς Πάνος-Κούρτη Ρία - Μη μού μιλάτε [Β. Βασιλειάδης-Γ. Γαβαλάς]
TTITLE6=Πάνου Πόλυ - Μιά νύχτα στο Πασαλιμάνι [Β. Τσιτσάνης]
TTITLE7=Μενιδιάτης Μιχάλης - Στο σπίτι μας που μπήκανε [Άκης Πάνου]
TTITLE8=Μοσχολιού Βίκυ - Ο τραμπαρίφας [Μ.Σουγιούλ-Α.Σακελλάριος/Χ.Γιαν)λος]
TTITLE9=Γιουλάκης Νίκος - Ο Καπετανάκης [παραδ., διασκ. Δημ. Βαρδουλάκης]
TTITLE10=Νικολαΐδης Απόστολος - Ποιος θα με πληροφορήσει[Α.Καλδάρας-Ε.Παπαγγια
TTITLE10=νοπούλου]
TTITLE11=Μακρής Ηλίας-Καραγιάννη Νάντια - Ας πάν' στην ευχή τα παλιά [Α. Καλδά
TTITLE11=ρας]
TTITLE12=Παγιουμτζής Στράτος - Το φιλί δεν είναι κρίμα [Β. Τσιτσάνης]
TTITLE13=Ζαγοραίος Σπύρος - Μωρή ζηλιάρα και τρελλή [Σ. Ζαγοραίος]
TTITLE14=Αγγελόπουλος Μανώλης - Όταν κοιμάται ο δυστυχής [Β. Καραπατάκης-Χ. Βα
TTITLE14=σιλειάδης]
TTITLE15=Διονυσίου Στέλιος - Με σκότωσε γιατί την αγαπούσα[Χ.Νικολόπουλος-Λ.Πα
TTITLE15=παδόπουλος]
TTITLE16=Γαβαλάς Πάνος - Το χτύπημα [Χ.Νικολόπουλος-Γ.Βασιλόπουλος/Β.Ατραΐδης]
TTITLE17=Μπίνης Τάκης - Ψιλοβελονιά δουλεύεις [Τ. Μπίνης]
TTITLE18=Αιγύπτιος Γιώργος - Για λίγες σταγόνες ευτυχίας [Σ. Κάξος]
TTITLE19=Χριστοδουλόπουλος Μάκης - Απορώ [Γ. Πάριος, εισ. Β. Σαλέας]
EXTD=
EXTT0=
EXTT1=
EXTT2=
EXTT3=
EXTT4=
EXTT5=
EXTT6=
EXTT7=
EXTT8=
EXTT9=
EXTT10=
EXTT11=
EXTT12=
EXTT13=
EXTT14=
EXTT15=
EXTT16=
EXTT17=
EXTT18=
EXTT19=
PLAYORDER=
